<?xml version="1.0" encoding="UTF-8"?>
<svg id="Layer_1" data-name="Layer 1" xmlns="http://www.w3.org/2000/svg" version="1.1" viewBox="0 0 200 200">
  <defs>
    <style>
      .cls-1 {
        fill: #e82629;
        stroke-width: 0px;
      }
    </style>
  </defs>
  <g id="_25545_-_Registration" data-name="25545 - Registration">
    <g>
      <path class="cls-1" d="M125.45,170.69H41.46c-1.22,0-2.21-.99-2.21-2.21V31.52c0-1.22.99-2.21,2.21-2.21h66.32c.59,0,1.13.23,1.58.63l17.63,17.67c.41.41.63.99.63,1.58v66.81c0,1.22-.99,2.21-2.21,2.21s-2.21-.99-2.21-2.21V50.09l-16.32-16.37h-63.16v132.55h79.53v-31.47c0-1.22.99-2.21,2.21-2.21s2.21.99,2.21,2.21v33.68c-.05,1.22-.99,2.21-2.21,2.21Z"/>
      <path class="cls-1" d="M125.45,51.4h-17.67c-1.22,0-2.21-.99-2.21-2.21v-17.67c0-1.22.99-2.21,2.21-2.21s2.21.99,2.21,2.21v15.46h15.46c1.22,0,2.21.99,2.21,2.21s-.99,2.21-2.21,2.21Z"/>
      <path class="cls-1" d="M63.6,86.75h-13.25c-1.22,0-2.21-.99-2.21-2.21v-13.25c0-1.22.99-2.21,2.21-2.21h13.25c1.22,0,2.21.99,2.21,2.21v13.25c0,1.22-.99,2.21-2.21,2.21ZM52.55,82.33h8.84v-8.84h-8.84v8.84Z"/>
      <path class="cls-1" d="M63.6,111.05h-13.25c-1.22,0-2.21-.99-2.21-2.21v-13.25c0-1.22.99-2.21,2.21-2.21h13.25c1.22,0,2.21.99,2.21,2.21v13.25c0,1.22-.99,2.21-2.21,2.21ZM52.55,106.63h8.84v-8.84h-8.84v8.84Z"/>
      <path class="cls-1" d="M63.6,135.35h-13.25c-1.22,0-2.21-.99-2.21-2.21v-13.25c0-1.22.99-2.21,2.21-2.21h13.25c1.22,0,2.21.99,2.21,2.21v13.25c0,1.22-.99,2.21-2.21,2.21ZM52.55,130.93h8.84v-8.84h-8.84v8.84Z"/>
      <path class="cls-1" d="M98.94,62.45h-48.6c-1.22,0-2.21-.99-2.21-2.21v-17.67c0-1.22.99-2.21,2.21-2.21h48.6c1.22,0,2.21.99,2.21,2.21v17.67c0,1.22-.99,2.21-2.21,2.21ZM52.55,58.03h44.18v-13.25h-44.18v13.25h0Z"/>
      <path class="cls-1" d="M114.4,86.75h-41.97c-1.22,0-2.21-.99-2.21-2.21s.99-2.21,2.21-2.21h41.97c1.22,0,2.21.99,2.21,2.21s-.99,2.21-2.21,2.21Z"/>
      <path class="cls-1" d="M114.4,73.49h-41.97c-1.22,0-2.21-.99-2.21-2.21s.99-2.21,2.21-2.21h41.97c1.22,0,2.21.99,2.21,2.21s-.99,2.21-2.21,2.21Z"/>
      <path class="cls-1" d="M114.4,111.05h-41.97c-1.22,0-2.21-.99-2.21-2.21s.99-2.21,2.21-2.21h41.97c1.22,0,2.21.99,2.21,2.21s-.99,2.21-2.21,2.21Z"/>
      <path class="cls-1" d="M114.4,97.79h-41.97c-1.22,0-2.21-.99-2.21-2.21s.99-2.21,2.21-2.21h41.97c1.22,0,2.21.99,2.21,2.21s-.99,2.21-2.21,2.21Z"/>
      <path class="cls-1" d="M108.32,135.35h-35.89c-1.22,0-2.21-.99-2.21-2.21s.99-2.21,2.21-2.21h35.89c1.22,0,2.21.99,2.21,2.21s-.99,2.21-2.21,2.21Z"/>
      <path class="cls-1" d="M109.94,122.09h-37.55c-1.22,0-2.21-.99-2.21-2.21s.99-2.21,2.21-2.21h37.55c1.22,0,2.21.99,2.21,2.21s-.95,2.21-2.21,2.21Z"/>
      <path class="cls-1" d="M91.01,162.08c-.59,0-1.13-.23-1.58-.63-.54-.54-.77-1.35-.59-2.12l3.11-12.49c.09-.41.32-.72.59-1.04l53.11-53.11c1.67-1.67,3.88-2.57,6.27-2.57s4.6.9,6.27,2.57c1.67,1.67,2.57,3.88,2.57,6.27s-.9,4.6-2.57,6.27l-53.11,53.06c-.27.27-.63.5-1.04.59l-12.49,3.11c-.18.05-.36.09-.54.09ZM96.1,148.51l-2.07,8.34,8.34-2.07,52.66-52.7c.86-.86,1.31-1.94,1.31-3.11s-.45-2.3-1.31-3.11c-.86-.86-1.94-1.31-3.11-1.31s-2.3.45-3.11,1.31l-52.7,52.66ZM103.49,156.76h0Z"/>
      <path class="cls-1" d="M103.49,158.97c-.59,0-1.13-.23-1.58-.63l-9.38-9.38c-.86-.86-.86-2.25,0-3.11s2.25-.86,3.11,0l9.38,9.38c.86.86.86,2.25,0,3.11-.41.41-.99.63-1.53.63Z"/>
      <path class="cls-1" d="M153.49,108.97c-.59,0-1.13-.23-1.58-.63l-9.38-9.38c-.86-.86-.86-2.25,0-3.11.86-.86,2.25-.86,3.11,0l9.38,9.38c.86.86.86,2.25,0,3.11-.41.41-.99.63-1.53.63Z"/>
      <path class="cls-1" d="M52.55,161.85c-.18,0-.36,0-.54-.05-1.17-.32-1.89-1.49-1.62-2.66l.05-.23c.72-2.8,2.57-5.23,5.09-6.63s5.59-1.67,8.34-.77c2.16.72,4.55.18,6.18-1.44l5.23-5.23c.86-.86,2.25-.86,3.11,0s.86,2.25,0,3.11l-5.23,5.23c-2.8,2.8-6.9,3.79-10.68,2.52-1.62-.54-3.34-.36-4.78.45-1.49.81-2.52,2.16-2.93,3.83l-.05.23c-.27.95-1.17,1.62-2.16,1.62Z"/>
    </g>
  </g>
</svg>