<?xml version="1.0" encoding="UTF-8"?>
<svg id="Layer_1" data-name="Layer 1" xmlns="http://www.w3.org/2000/svg" viewBox="0 0 200 100">
  <defs>
    <style>
      .cls-1 {
        fill: #e8262a;
      }

      .cls-1, .cls-2 {
        stroke-width: 0px;
      }

      .cls-2 {
        fill: #fff;
      }
    </style>
  </defs>
  <path class="cls-1" d="M56.75,11.95h-18.33c-16.03,0-29.02,13-29.02,29.02v18.05c0,16.04,12.99,29.03,29.02,29.03h18.33c16.04,0,29.02-13,29.02-29.03v-18.05c0-16.03-12.98-29.02-29.02-29.02Z"/>
  <g>
    <path class="cls-2" d="M32.11,47.47v4.28c-.04.42-.37.77-.81.82-.34.04-.68.07-1.01.09v-5.19c0-.5.41-.91.91-.91s.91.41.91.91Z"/>
    <path class="cls-2" d="M32.11,47.47v4.28c-.04.42-.37.77-.81.82-.34.04-.68.07-1.01.09v-5.19c0-.5.41-.91.91-.91s.91.41.91.91Z"/>
    <rect class="cls-2" x="30.99" y="63.46" width="1.97" height="6.96"/>
    <polygon class="cls-2" points="36.29 66.71 36.29 70.42 34.36 70.42 34.36 63.46 35.99 63.46 39.06 67.17 39.06 63.46 40.99 63.46 40.99 70.42 39.37 70.42 36.29 66.71"/>
    <path class="cls-2" d="M62.47,20.64c-5.91-2.06-12.37-.24-16.74,4.61-.66-.44-1.37-.82-2.16-1.14-4.82-1.99-10.69-1.06-13.97,2.21-2.37,2.37-3.58,5.76-3.25,9.08-2.85.26-5.51,2.07-6.97,4.84-1.62,3.06-1.43,6.54.5,9.1,1.7,2.26,4.57,3.39,8.56,3.39.6,0,1.22-.02,1.87-.08v5.88h33.75v-12.84s0-.09,0-.13c1.52-.55,2.99-1.33,4.24-2.42,2.42-2.1,3.63-5.02,3.63-8.7,0-6.47-3.62-11.77-9.44-13.81ZM67.09,41.77c-4.87,4.27-14.1,3.06-14.18,3.04-.51-.08-.96.28-1.03.77-.07.51.28.96.77,1.02.15.03,1.48.2,3.38.2,1.73,0,3.96-.15,6.2-.7v10.62h-30.12v-9.26c0-.5-.41-.91-.91-.91s-.91.41-.91.91v3.38c-3.19.26-7.06-.05-8.97-2.58-1.52-2.03-1.66-4.71-.35-7.16,1.32-2.5,3.82-4.03,6.36-3.91l1.16.06-.22-1.14c-.61-3.01.41-6.35,2.58-8.5,2.78-2.78,7.83-3.54,12-1.83.74.31,1.4.67,1.99,1.09l.83.66c1.59,1.45,2.46,3.38,2.48,5.58,0,.51.4.91.9.91h0c.5,0,.91-.42.89-.92,0-2.63-1-4.96-2.84-6.72,3.88-4.26,9.55-5.83,14.71-4.03,5.08,1.78,8.22,6.42,8.22,12.1,0,3.12-1,5.58-3,7.31Z"/>
    <path class="cls-2" d="M32.11,47.47v4.28c-.04.42-.37.77-.81.82-.34.04-.68.07-1.01.09v-5.19c0-.5.41-.91.91-.91s.91.41.91.91Z"/>
    <path class="cls-2" d="M32.11,47.47v4.28c-.04.42-.37.77-.81.82-.34.04-.68.07-1.01.09v-5.19c0-.5.41-.91.91-.91s.91.41.91.91Z"/>
    <path class="cls-2" d="M32.11,47.47v4.28c-.04.42-.37.77-.81.82-.34.04-.68.07-1.01.09v-5.19c0-.5.41-.91.91-.91s.91.41.91.91Z"/>
    <g>
      <path class="cls-2" d="M32.11,47.47v4.28c-.04.42-.37.77-.81.82-.34.04-.68.07-1.01.09v-5.19c0-.5.41-.91.91-.91s.91.41.91.91Z"/>
      <g>
        <path class="cls-2" d="M71.91,34.45c0,3.67-1.22,6.6-3.63,8.69-1.25,1.09-2.71,1.87-4.24,2.42,0,.04,0,.09,0,.14v12.84H30.3v-5.88c.33-.02.67-.05,1.01-.09.44-.05.77-.4.81-.82v4.97h30.12v-10.62c-2.24.55-4.46.7-6.2.7-1.91,0-3.23-.17-3.38-.2-.5-.06-.84-.52-.78-1.02.07-.5.53-.85,1.03-.78.09.02,9.31,1.23,14.18-3.03,2-1.74,3-4.19,3-7.32,0-5.68-3.15-10.32-8.22-12.1-5.17-1.81-10.84-.23-14.72,4.03,1.84,1.76,2.83,4.08,2.84,6.72,0,.5-.4.92-.9.92h0c-.5,0-.9-.41-.9-.91-.02-2.21-.89-4.13-2.49-5.58-.26-.24-.54-.45-.83-.66-.6-.42-1.26-.79-2-1.1-4.17-1.72-9.22-.95-12.01,1.83-2.17,2.16-3.18,5.49-2.59,8.5l.22,1.14-1.16-.06c-2.55-.13-5.04,1.41-6.37,3.9-1.31,2.46-1.18,5.14.35,7.17,1.91,2.54,5.78,2.84,8.97,2.59v1.82c-.65.06-1.27.08-1.87.08-3.99,0-6.87-1.14-8.56-3.39-1.93-2.57-2.12-6.05-.5-9.1,1.47-2.76,4.12-4.58,6.98-4.84-.33-3.32.87-6.72,3.24-9.08,3.28-3.27,9.15-4.2,13.97-2.22.79.33,1.51.71,2.17,1.15,4.37-4.86,10.83-6.68,16.74-4.61,5.82,2.05,9.44,7.34,9.44,13.81Z"/>
        <path class="cls-2" d="M32.11,51.62v.13c-.04.42-.37.77-.81.82-.34.04-.68.07-1.01.09v-1.82c.27-.02.54-.05.81-.08.49-.06.95.3,1,.8,0,.02,0,.04,0,.06Z"/>
      </g>
    </g>
    <g>
      <path class="cls-2" d="M47.73,66.79c.61-.31.93-.85.93-1.52,0-1.07-.89-1.82-2.73-1.82h-3.55v6.96h3.75c1.88,0,2.86-.71,2.86-1.91,0-.84-.49-1.44-1.27-1.72ZM44.33,64.88h1.35c.66,0,1,.24,1,.67s-.35.67-1,.67h-1.35v-1.34ZM45.98,69h-1.65v-1.41h1.65c.67,0,1.04.23,1.04.71s-.36.7-1.04.7Z"/>
      <path class="cls-2" d="M53.53,63.32c-2.22,0-3.86,1.54-3.86,3.63s1.64,3.62,3.86,3.62,3.87-1.54,3.87-3.62-1.63-3.63-3.87-3.63ZM53.53,68.93c-1.04,0-1.88-.79-1.88-1.99s.83-1.99,1.88-1.99,1.89.78,1.89,1.99-.82,1.99-1.89,1.99Z"/>
      <path class="cls-2" d="M62.27,66.82l2.43-3.36h-2.14l-1.36,2.01-1.4-2.01h-2.21l2.42,3.44-2.53,3.52h2.24l1.43-2.15,1.44,2.15h2.27l-2.59-3.6Z"/>
    </g>
    <g>
      <path class="cls-2" d="M33.67,76.53l2.05-1.99h-1.07s-2.65,2.4-2.65,2.4l.02-4.37h-.88l-.03,6.8h.88v-1.33s1.02-.93,1.02-.93l1.81,2.27h1.08l-2.23-2.85Z"/>
      <path class="cls-2" d="M36.71,74.54l-.02,4.86h.88l.03-4.85h-.88ZM37.17,72.46c-.35,0-.59.26-.6.58,0,.32.25.57.6.57s.6-.25.6-.59c0-.31-.26-.55-.6-.56Z"/>
      <path class="cls-2" d="M41.7,78.5c-.18.15-.43.23-.69.23-.47,0-.76-.3-.74-.82v-2.63s1.41,0,1.41,0v-.72l-1.4-.02v-1.05s-.87,0-.87,0l-.02,1.06h-.82s0,.72,0,.72h.82v2.66c-.02.99.54,1.53,1.52,1.53.39,0,.79-.1,1.06-.33l-.28-.64Z"/>
      <path class="cls-2" d="M44.99,78.72c-.94,0-1.67-.67-1.65-1.72,0-1.04.72-1.71,1.67-1.7.54,0,1,.22,1.31.7l.68-.41c-.4-.69-1.11-1.05-1.98-1.05-1.5,0-2.58,1.01-2.58,2.46,0,1.45,1.06,2.48,2.54,2.49.88,0,1.6-.36,1.99-1.03l-.67-.43c-.31.48-.79.69-1.32.69Z"/>
      <path class="cls-2" d="M50.66,74.57c-.74-.02-1.35.24-1.71.72v-2.63s-.88,0-.88,0l-.03,6.79.88.02v-2.51c.02-1.05.62-1.61,1.56-1.6.83,0,1.3.47,1.3,1.43v2.69s.87,0,.87,0v-2.79c.02-1.44-.81-2.11-1.99-2.11Z"/>
      <path class="cls-2" d="M58.72,77.11c0-1.49-.99-2.51-2.39-2.52-1.41,0-2.44,1.03-2.45,2.47,0,1.45,1.04,2.48,2.6,2.49.8,0,1.46-.27,1.92-.77l-.49-.57c-.36.39-.83.58-1.4.58-.97,0-1.65-.58-1.76-1.43l3.94.03c.02-.09.03-.19.03-.27ZM54.76,76.71c.09-.82.72-1.38,1.56-1.37.85,0,1.46.58,1.55,1.4l-3.11-.03Z"/>
      <path class="cls-2" d="M62.54,74.61c-.77,0-1.4.29-1.76.78v-.74s-.83,0-.83,0l-.03,4.85h.88v-2.49c.02-1.04.61-1.61,1.56-1.61.82,0,1.3.48,1.3,1.43l-.03,2.69h.88l.02-2.79c0-1.43-.82-2.1-2-2.12Z"/>
    </g>
  </g>
  <g>
    <path class="cls-1" d="M98.78,30.77v18.87h5.34v-18.87h-5.34Z"/>
    <path class="cls-1" d="M120.65,30.77v10.05l-8.33-10.05h-4.39v18.87h5.23v-10.06l8.33,10.06h4.39v-18.87h-5.23Z"/>
    <path class="cls-1" d="M144.17,39.8c1.61-.83,2.53-2.29,2.53-4.09,0-2.91-2.43-4.93-7.39-4.93h-9.66v18.87h10.19c5.07,0,7.76-1.92,7.76-5.18,0-2.3-1.32-3.91-3.44-4.67ZM134.95,34.63h3.67c1.78,0,2.69.61,2.69,1.8s-.92,1.84-2.69,1.84h-3.67v-3.64ZM139.42,45.79h-4.47v-3.83h4.47c1.84,0,2.81.61,2.81,1.91s-.98,1.92-2.81,1.92Z"/>
    <path class="cls-1" d="M159.91,30.39c-6.04,0-10.49,4.16-10.49,9.82s4.45,9.81,10.49,9.81,10.5-4.15,10.5-9.81-4.45-9.82-10.5-9.82ZM159.91,45.6c-2.85,0-5.09-2.13-5.09-5.39s2.24-5.4,5.09-5.4,5.1,2.13,5.1,5.4-2.24,5.39-5.1,5.39Z"/>
    <path class="cls-1" d="M183.59,39.88l6.58-9.11h-5.77l-3.72,5.44-3.77-5.44h-6.01l6.57,9.33-6.88,9.55h6.09l3.86-5.85,3.91,5.85h6.14l-7.01-9.76Z"/>
  </g>
  <g>
    <path class="cls-1" d="M106.12,68.5l5.57-5.47h-2.9l-7.23,6.6v-11.9h-2.4v18.56h2.4v-3.63l2.75-2.55,4.97,6.18h2.95l-6.12-7.79Z"/>
    <path class="cls-1" d="M115.6,57.35c-.93,0-1.62.71-1.62,1.58s.7,1.55,1.62,1.55,1.62-.71,1.62-1.6-.7-1.53-1.62-1.53ZM114.4,63.03v13.26h2.41v-13.26h-2.41Z"/>
    <path class="cls-1" d="M128.08,73.79c-.5.4-1.17.62-1.87.62-1.33,0-2.08-.8-2.08-2.23v-7.18h3.8v-1.97h-3.8v-2.9h-2.4v2.9h-2.25v1.97h2.25v7.28c0,2.68,1.52,4.16,4.2,4.16,1.08,0,2.18-.3,2.9-.93l-.76-1.72Z"/>
    <path class="cls-1" d="M137.04,74.34c-2.6,0-4.55-1.8-4.55-4.68s1.95-4.65,4.55-4.65c1.45,0,2.74.61,3.59,1.9l1.83-1.17c-1.04-1.85-3.02-2.83-5.4-2.83-4.07,0-7,2.8-7,6.75s2.93,6.78,7,6.78c2.38,0,4.36-1,5.4-2.85l-1.83-1.15c-.85,1.3-2.15,1.9-3.59,1.9Z"/>
    <path class="cls-1" d="M152.47,62.9c-2.03,0-3.68.72-4.68,2v-7.18h-2.4v18.56h2.4v-6.83c0-2.88,1.65-4.4,4.21-4.4,2.27,0,3.58,1.27,3.58,3.87v7.36h2.4v-7.63c0-3.9-2.28-5.75-5.51-5.75Z"/>
    <path class="cls-1" d="M174.48,69.73c0-4.07-2.73-6.83-6.56-6.83s-6.65,2.83-6.65,6.75,2.85,6.78,7.13,6.78c2.2,0,4.02-.75,5.23-2.15l-1.32-1.55c-.98,1.08-2.28,1.6-3.83,1.6-2.63,0-4.5-1.55-4.81-3.87h10.76c.03-.23.05-.53.05-.73ZM163.67,68.73c.25-2.25,1.95-3.8,4.25-3.8s4.01,1.57,4.25,3.8h-8.5Z"/>
    <path class="cls-1" d="M184.89,62.9c-2.1,0-3.8.77-4.78,2.13v-2h-2.3v13.26h2.41v-6.83c0-2.88,1.64-4.4,4.2-4.4,2.27,0,3.57,1.27,3.57,3.87v7.36h2.41v-7.63c0-3.9-2.28-5.75-5.51-5.75Z"/>
  </g>
</svg>