<?xml version="1.0" encoding="UTF-8"?>
<svg id="Layer_1" data-name="Layer 1" xmlns="http://www.w3.org/2000/svg" version="1.1" viewBox="0 0 200 200">
  <defs>
    <style>
      .cls-1 {
        fill: #e82629;
        fill-rule: evenodd;
        stroke-width: 0px;
      }
    </style>
  </defs>
  <g id="_451463752" data-name=" 451463752">
    <path id="_451465648" data-name=" 451465648" class="cls-1" d="M127.49,90.65c-18.82,0-34.12,15.3-34.12,34.12s15.3,34.12,34.12,34.12,34.12-15.3,34.12-34.12c.05-18.82-15.3-34.12-34.12-34.12h0ZM127.49,161.85c-20.44,0-37.08-16.64-37.08-37.08s16.64-37.08,37.08-37.08,37.08,16.64,37.08,37.08c.05,20.44-16.6,37.08-37.08,37.08h0Z"/>
    <path id="_451464400" data-name=" 451464400" class="cls-1" d="M127.49,100.73c-.83,0-1.47-.67-1.47-1.47v-10c0-.83.67-1.47,1.47-1.47s1.47.67,1.47,1.47v10c.04.83-.63,1.47-1.47,1.47h0Z"/>
    <path id="_451464208" data-name=" 451464208" class="cls-1" d="M140.31,104.17c-.24,0-.51-.08-.75-.2-.71-.4-.95-1.3-.55-2.02l4.98-8.66c.4-.71,1.3-.95,2.02-.55s.95,1.3.55,2.02l-4.94,8.66c-.28.47-.79.75-1.3.75h0Z"/>
    <path id="_451464184" data-name=" 451464184" class="cls-1" d="M149.72,113.54c-.51,0-1.03-.28-1.26-.75-.4-.71-.16-1.62.55-2.02l8.66-4.98c.71-.4,1.62-.16,2.02.55s.16,1.62-.55,2.02l-8.66,4.98c-.28.16-.52.2-.75.2h0Z"/>
    <path id="_451464904" data-name=" 451464904" class="cls-1" d="M163.12,126.35h-10c-.83,0-1.47-.67-1.47-1.47s.67-1.47,1.47-1.47h10c.83,0,1.47.67,1.47,1.47.04.83-.63,1.47-1.47,1.47Z"/>
    <path id="_451464160" data-name=" 451464160" class="cls-1" d="M158.34,144.18c-.24,0-.51-.08-.75-.2l-8.66-4.98c-.71-.4-.95-1.3-.55-2.02.4-.71,1.3-.95,2.02-.55l8.66,4.98c.71.4.95,1.3.55,2.02-.24.47-.75.75-1.26.75h0Z"/>
    <path id="_451464616" data-name=" 451464616" class="cls-1" d="M145.33,157.23c-.51,0-.99-.28-1.26-.75l-4.98-8.66c-.4-.71-.16-1.62.55-2.02.71-.4,1.62-.16,2.02.55l4.98,8.66c.4.71.16,1.62-.55,2.02-.24.12-.51.2-.75.2h0Z"/>
    <path id="_451464304" data-name=" 451464304" class="cls-1" d="M127.49,161.98c-.83,0-1.47-.67-1.47-1.47v-10c0-.83.67-1.47,1.47-1.47s1.47.67,1.47,1.47v10c.04.83-.63,1.47-1.47,1.47h0Z"/>
    <path id="_451464712" data-name=" 451464712" class="cls-1" d="M109.7,157.23c-.24,0-.51-.08-.75-.2-.71-.4-.95-1.3-.55-2.02l4.98-8.66c.4-.71,1.3-.95,2.02-.55s.95,1.3.55,2.02l-4.98,8.66c-.28.47-.75.75-1.26.75h0Z"/>
    <path id="_451464808" data-name=" 451464808" class="cls-1" d="M96.66,144.18c-.51,0-1.03-.28-1.26-.75-.4-.71-.16-1.62.55-2.02l8.66-4.98c.71-.4,1.62-.16,2.02.55.4.71.16,1.62-.55,2.02l-8.66,4.98c-.24.12-.48.2-.75.2h0Z"/>
    <path id="_451464760" data-name=" 451464760" class="cls-1" d="M101.88,126.35h-10c-.83,0-1.47-.67-1.47-1.47s.67-1.47,1.47-1.47h10c.83,0,1.47.67,1.47,1.47.04.83-.63,1.47-1.47,1.47Z"/>
    <path id="_451464088" data-name=" 451464088" class="cls-1" d="M105.32,113.54c-.24,0-.51-.08-.75-.2l-8.66-4.98c-.71-.4-.95-1.3-.55-2.02s1.3-.95,2.02-.55l8.66,4.98c.71.4.95,1.3.55,2.02-.24.51-.75.75-1.26.75h0Z"/>
    <path id="_451464040" data-name=" 451464040" class="cls-1" d="M114.69,104.17c-.51,0-1.03-.28-1.26-.75l-4.98-8.66c-.4-.71-.16-1.62.55-2.02.71-.4,1.62-.16,2.02.55l4.98,8.66c.4.71.16,1.62-.55,2.02-.24.16-.48.2-.75.2h0Z"/>
    <path id="_451463944" data-name=" 451463944" class="cls-1" d="M118.52,131.45c-.51,0-1.03-.28-1.26-.75-.4-.71-.16-1.62.55-2.02l8.07-4.67v-13.05c0-.83.67-1.47,1.47-1.47s1.47.67,1.47,1.47v13.88c0,.51-.28,1.03-.75,1.26l-8.78,5.06c-.29.2-.52.28-.76.28Z"/>
    <path id="_451463512" data-name=" 451463512" class="cls-1" d="M80.96,161.85c-.48,0-.95-.24-1.22-.63-3.44-4.86-7.55-10.08-11.9-15.62-15.22-19.29-32.42-41.16-32.42-62.07,0-25.07,20.4-45.51,45.55-45.51s45.55,20.44,45.55,45.55c0,1.9-.16,3.87-.44,5.93-.12.79-.87,1.38-1.66,1.26s-1.38-.87-1.26-1.66c.28-1.9.44-3.72.44-5.49,0-23.49-19.1-42.58-42.58-42.58s-42.58,19.1-42.58,42.58c0,19.89,16.88,41.32,31.79,60.21,3.87,4.9,7.55,9.61,10.79,14.03,3.24-4.47,6.92-9.13,10.79-14.03.95-1.22,1.94-2.45,2.89-3.68.51-.63,1.42-.75,2.06-.24.63.51.75,1.42.24,2.1-.99,1.22-1.94,2.45-2.89,3.68-4.35,5.53-8.46,10.71-11.9,15.62-.31.31-.75.55-1.22.55h0Z"/>
    <path id="_451463776" data-name=" 451463776" class="cls-1" d="M80.96,63.68c-10.95,0-19.89,8.94-19.89,19.89s8.94,19.89,19.89,19.89,19.89-8.9,19.89-19.89c0-10.95-8.94-19.89-19.89-19.89h0ZM80.96,106.42c-12.57,0-22.85-10.24-22.85-22.85s10.24-22.85,22.85-22.85,22.85,10.24,22.85,22.85c-.05,12.62-10.28,22.85-22.85,22.85Z"/>
  </g>
</svg>